<svg width="24" height="24" viewBox="0 0 24 24" fill="none" xmlns="http://www.w3.org/2000/svg">
<path d="M3 4C3 2.895 3.895 2 5 2L19 2C20.105 2 21 2.895 21 4C21 5.105 20.105 6 19 6L5 6C3.895 6 3 5.105 3 4Z" fill="#22A2BD" stroke="#22A2BD" stroke-width="1.5" stroke-linecap="round" stroke-linejoin="round"/>
<path d="M2.99999 12C2.99999 10.895 3.89499 10 4.99999 10L13.316 10C14.421 10 15.316 10.895 15.316 12C15.316 13.105 14.421 14 13.316 14L4.99999 14C3.89499 14 2.99999 13.105 2.99999 12Z" fill="#22A2BD" stroke="#22A2BD" stroke-width="1.5" stroke-linecap="round" stroke-linejoin="round"/>
<path d="M3 20C3 18.895 3.895 18 5 18L7.632 18C8.737 18 9.632 18.895 9.632 20C9.632 21.105 8.737 22 7.632 22L5 22C3.895 22 3 21.105 3 20Z" fill="#22A2BD" stroke="#22A2BD" stroke-width="1.5" stroke-linecap="round" stroke-linejoin="round"/>
</svg>
